HIERARCHY
ROOT Hip
{
	OFFSET	0.00  0.00  0.00 
	CHANNELS 6 Xposition Yposition Zposition Xrotation Zrotation Yrotation
	JOINT Abdomen
	{
		OFFSET	0.000000 0.000000 0.000000
		CHANNELS 3 Xrotation Zrotation Yrotation
		JOINT Chest
		{
			OFFSET	0.000000 5.018152 -1.882229
			CHANNELS 3 Xrotation Zrotation Yrotation
			JOINT neckDummy
			{
				OFFSET	0.000000 8.316447 0.784897
				CHANNELS 3 Xrotation Yrotation Zrotation
				JOINT Neck
				{
					OFFSET	0.000000 2.280413 -0.392801
					CHANNELS 3 Xrotation Zrotation Yrotation
					JOINT Head
					{
						OFFSET	0.000000 3.496879 0.529469
						CHANNELS 3 Xrotation Zrotation Yrotation
						End Site
						{
							OFFSET 0.000000 10.353750 0.000000
						}
					}
				}
			}
			JOINT Left Collar
			{
				OFFSET	0.599237 8.316447 0.784897
				CHANNELS 3 Yrotation Zrotation Xrotation
				JOINT Left Shoulder
				{
					OFFSET	6.421198 0.010146 -0.332128
					CHANNELS 3 Zrotation Yrotation Xrotation
					JOINT Left Forearm
					{
						OFFSET	10.552783 0.025574 0.125508
						CHANNELS 3 Yrotation Zrotation Xrotation
						JOINT Left Hand
						{
							OFFSET	11.035963 0.319619 0.041520
							CHANNELS 3 Zrotation Yrotation Xrotation
							End Site
							{
								OFFSET 10.353753 0.000000 0.000000
							}
						}
					}
				}
			}
			JOINT Right Collar
			{
				OFFSET	-0.599237 8.316447 0.784897
				CHANNELS 3 Yrotation Zrotation Xrotation
				JOINT Right Shoulder
				{
					OFFSET	-6.421198 0.010146 -0.332128
					CHANNELS 3 Zrotation Yrotation Xrotation
					JOINT Right Forearm
					{
						OFFSET	-10.552783 0.025574 0.125508
						CHANNELS 3 Yrotation Zrotation Xrotation
						JOINT Right Hand
						{
							OFFSET	-11.035963 0.319619 0.041520
							CHANNELS 3 Zrotation Yrotation Xrotation
							End Site
							{
								OFFSET -10.353753 0.000000 0.000000
							}
						}
					}
				}
			}
		}
	}
	JOINT Left Thigh
	{
		OFFSET	4.500466 -6.400484 -1.832696
		CHANNELS 3 Xrotation Zrotation Yrotation
		JOINT Left Shin
		{
			OFFSET	-1.359117 -18.918689 1.179887
			CHANNELS 3 Xrotation Zrotation Yrotation
			JOINT Left Foot
			{
				OFFSET	-0.652380 -17.215187 -0.312137
				CHANNELS 3 Xrotation Yrotation Zrotation
				End Site
				{
					OFFSET 0.000000 0.000000 10.353752
				}
			}
		}
	}
	JOINT Right Thigh
	{
		OFFSET	-4.500466 -6.400484 -1.832696
		CHANNELS 3 Xrotation Zrotation Yrotation
		JOINT Right Shin
		{
			OFFSET	1.359117 -18.918689 1.179887
			CHANNELS 3 Xrotation Zrotation Yrotation
			JOINT Right Foot
			{
				OFFSET	0.652380 -17.215187 -0.312137
				CHANNELS 3 Xrotation Yrotation Zrotation
				End Site
				{
					OFFSET 0.000000 0.000000 10.353752
				}
			}
		}
	}
}
MOTION
Frames:     11
Frame Time: 0.041667
0.000000 27.545851 0.228007 0.000000 0.527345 -3.515740 -0.445935 -1.860980 34.427101 -0.055955 1.268210 25.650499 0.000000 0.000000 0.000000 0.063750 0.163057 -0.015324 0.069933 0.184772 0.151343 0.115715 -0.078572 -0.476942 -46.589634 66.443581 49.075382 -65.968452 -6.725142 -4.992134 -32.605190 -12.372667 -2.884389 0.153153 0.052168 0.068626 23.328875 85.534081 -19.622578 6.691198 -0.810223 -8.020802 0.000000 0.000000 0.000000 -34.794701 56.834934 -14.307112 53.874813 -39.620525 -33.740330 -14.534974 1.295930 -9.151441 -7.037815 -51.224289 -4.937453 0.000000 0.000000 0.000000 -10.793381 6.725776 45.792877 
-0.000079 28.557628 0.228531 -2.209538 0.298348 -3.474863 0.955448 -1.943710 31.051355 1.205221 0.693267 23.694899 0.000000 0.000000 0.000000 0.094396 0.165256 0.189179 0.504825 0.084965 0.896181 0.109189 -0.087769 -0.434533 -48.356995 55.336758 42.652702 -68.496368 -7.081954 -13.616396 -29.970816 -12.272268 -2.518486 0.137453 0.051407 0.076988 26.720734 83.494591 -23.000160 2.449731 11.346360 -0.484786 0.137179 0.109914 0.000250 -31.484665 53.849716 -13.864410 53.208687 -37.361885 -31.237890 -15.247699 1.199467 -8.981572 -25.623430 -43.995506 3.963744 21.717432 -14.994353 -2.161917 -31.884287 3.301968 55.055038 
-0.000156 29.536202 0.229042 -4.345740 0.076727 -3.433659 2.325911 -2.023553 27.773781 2.439140 0.134747 21.803808 0.000000 0.000000 0.000000 0.115460 0.171859 0.370793 0.911278 -0.006129 1.614602 0.102860 -0.096633 -0.393220 -49.743046 44.569302 36.659611 -71.022682 -7.427815 -22.305384 -27.487215 -11.736440 -2.404489 0.122311 0.050630 0.085417 30.189016 81.338837 -26.006813 -1.667031 23.478180 6.544924 0.166952 0.055016 0.351668 -28.418186 50.406590 -13.131556 52.470413 -35.240150 -28.688271 -15.600770 1.191568 -8.451766 -45.687450 -31.724039 11.951694 52.252708 -31.450197 -14.026714 -35.242905 -0.343438 62.951229 
-0.000230 30.481227 0.229540 -6.406779 -0.137357 -3.392022 3.662109 -2.100263 24.595163 3.642687 -0.406641 19.976013 0.000000 0.000000 0.000000 0.128128 0.182211 0.531663 1.290935 -0.089203 2.306230 0.096737 -0.105165 -0.353036 -51.294407 34.017216 30.547697 -72.993645 -7.996527 -30.410660 -25.109436 -11.399388 -1.874482 0.107716 0.049840 0.093850 33.067726 79.440628 -29.041492 -5.697191 35.430676 13.485036 -0.000620 -0.000570 0.351561 -25.265709 47.250362 -12.047465 52.118450 -32.782196 -26.837717 -16.117088 1.355137 -8.071556 -55.181145 -24.858320 12.886321 65.968102 -36.941559 -22.599134 -38.158241 -2.214182 66.347542 
-0.000302 31.392306 0.230024 -8.390696 -0.343728 -3.349848 4.960639 -2.173588 21.516462 4.812690 -0.930157 18.210413 0.000000 0.000000 0.000000 0.133571 0.195662 0.673901 1.645391 -0.164935 2.970645 0.090828 -0.113363 -0.314018 -52.884369 24.050245 24.473867 -75.128563 -8.357697 -38.292309 -22.792727 -11.317154 -1.775245 0.093661 0.049035 0.102223 36.536572 77.190880 -31.974131 -9.209482 46.358948 19.877295 -0.000535 0.000463 0.351562 -22.658087 43.935593 -11.363238 51.868668 -30.509718 -24.667168 -16.640121 1.425854 -7.528422 -61.580055 -17.202475 11.468194 75.745094 -43.108521 -32.623100 -37.259155 -2.633743 69.220932 
-0.000370 32.268975 0.230495 -10.295393 -0.542198 -3.307029 6.218030 -2.243269 18.538813 5.945919 -1.435031 16.506012 0.000000 0.000000 0.000000 0.132949 0.211569 0.799581 1.976198 -0.233990 3.607379 0.085141 -0.121226 -0.276205 -54.314976 14.412725 18.798178 -77.240501 -8.709538 -45.680809 -20.567593 -10.982025 -1.692058 0.080138 0.048216 0.110472 39.273804 75.548767 -34.987358 -13.125952 56.957047 26.645380 0.175650 0.006866 0.351570 -20.001728 41.103802 -10.968876 51.299667 -28.394121 -22.537792 -16.633215 1.510723 -7.515262 -67.625198 -10.167207 9.530398 83.910004 -46.645824 -41.430637 -35.849102 -2.342960 70.238808 
-0.000434 33.110714 0.230951 -12.118635 -0.732565 -3.263457 7.430739 -2.309044 15.663529 7.039081 -1.920458 14.861925 0.000000 0.000000 0.000000 0.127408 0.229293 0.910754 2.284865 -0.297021 4.215913 0.079686 -0.128752 -0.239638 -55.565914 5.043443 13.332455 -79.165024 -9.084439 -52.929745 -18.148422 -10.582049 -1.300546 0.067140 0.047384 0.118531 41.921028 73.605881 -37.782433 -16.383999 67.649208 32.715534 -0.000744 0.000645 0.351562 -17.362448 38.276299 -10.557774 50.726799 -26.776590 -20.413176 -16.980997 1.572728 -6.973340 -73.637047 -4.544250 7.246516 88.235046 -48.099216 -45.953609 -34.292076 -1.232911 68.510803 
-0.000492 33.916939 0.231393 -13.858042 -0.914612 -3.219023 8.595145 -2.370640 12.892106 8.088808 -2.385600 13.277376 0.000000 0.000000 0.000000 0.118089 0.248197 1.009440 2.572862 -0.354670 4.795681 0.074472 -0.135936 -0.204360 -56.799789 -3.875495 8.111582 -81.203415 -8.984895 -59.737942 -16.154003 -10.444090 -1.353611 0.054661 0.046539 0.126339 44.723900 71.746033 -40.049229 -18.819950 77.382004 37.725124 -0.000258 0.000805 0.351561 -15.076169 35.283390 -9.843864 50.328098 -24.655657 -18.646446 -16.788561 1.738706 -6.599653 -79.713676 0.033868 4.711001 89.822899 -47.914341 -47.022503 -32.947422 0.502594 64.270485 
-0.000545 34.687003 0.231820 -15.511086 -1.088107 -3.173617 9.707539 -2.427778 10.226222 9.091661 -2.829584 11.751690 0.000000 0.000000 0.000000 0.106123 0.267648 1.097639 2.841624 -0.407570 5.346063 0.069509 -0.142776 -0.170415 -58.140667 -12.120828 3.471574 -83.283676 -9.022435 -66.230736 -14.044562 -10.077550 -1.242844 0.042696 0.045681 0.133828 47.225117 70.064651 -42.728725 -21.658863 86.767578 42.843761 0.302807 0.178636 0.528107 -12.772207 32.091003 -8.907873 50.081413 -22.594645 -16.568069 -16.635199 1.485227 -5.937313 -84.090454 4.109346 1.429729 88.520363 -48.387806 -47.019478 -31.089611 1.858134 59.913006 
-0.000592 35.420196 0.232231 -17.075087 -1.252803 -3.127127 10.764122 -2.480174 7.667740 10.044113 -3.251497 10.284297 0.000000 0.000000 0.000000 0.092640 0.287012 1.177334 3.092550 -0.456347 5.866390 0.064807 -0.149268 -0.137852 -59.272629 -20.153633 -1.341567 -84.831505 -9.282023 -72.323380 -12.157362 -9.921587 -1.230100 0.031242 0.044811 0.140934 49.862396 68.473389 -44.680042 -29.768366 95.640129 53.233543 0.319373 0.146981 0.879411 -10.653089 29.432613 -8.530169 49.492512 -20.829184 -15.125010 -16.407751 1.983748 -5.515336 -87.761398 6.853040 -1.420220 84.601303 -47.914539 -43.980331 -29.632664 2.907923 54.172535 
-0.000632 36.115744 0.232628 -18.547205 -1.408440 -3.079437 11.760997 -2.527530 5.218717 10.942552 -3.650390 8.874731 0.000000 0.000000 0.000000 0.078763 0.305656 1.250490 3.327008 -0.501617 6.355938 0.060378 -0.155407 -0.106720 -60.369106 -27.882254 -5.762556 -86.452148 -9.400204 -78.077583 -10.301917 -9.624326 -0.905586 0.020295 0.043929 0.147590 51.866634 67.137665 -46.976700 -31.319105 103.804794 57.070751 0.666985 0.222545 0.528852 -9.071386 26.595518 -8.342427 49.245094 -19.194569 -13.327526 -16.063185 1.901768 -5.181432 -90.701591 8.700590 -4.378039 79.086411 -46.629341 -39.480366 -28.116970 3.766716 48.190372 
